<?xml version="1.0" encoding="UTF-8"?>
<svg version="1.1" xmlns="http://www.w3.org/2000/svg" width="1216" height="1216">
<path d="M0 0 C401.28 0 802.56 0 1216 0 C1216 401.28 1216 802.56 1216 1216 C814.72 1216 413.44 1216 0 1216 C0 814.72 0 413.44 0 0 Z " fill="#2093EE" transform="translate(0,0)"/>
<path d="M0 0 C401.28 0 802.56 0 1216 0 C1216 401.28 1216 802.56 1216 1216 C814.72 1216 413.44 1216 0 1216 C0 814.72 0 413.44 0 0 Z M494 76 C494 82.27 494 88.54 494 95 C475.19 95 456.38 95 437 95 C437 101.27 437 107.54 437 114 C418.19 114 399.38 114 380 114 C380 120.27 380 126.54 380 133 C367.46 133 354.92 133 342 133 C342 139.27 342 145.54 342 152 C335.73 152 329.46 152 323 152 C323 158.27 323 164.54 323 171 C310.46 171 297.92 171 285 171 C285 177.27 285 183.54 285 190 C278.73 190 272.46 190 266 190 C266 196.27 266 202.54 266 209 C259.73 209 253.46 209 247 209 C247 215.27 247 221.54 247 228 C240.73 228 234.46 228 228 228 C228 234.27 228 240.54 228 247 C221.73 247 215.46 247 209 247 C209 253.27 209 259.54 209 266 C202.73 266 196.46 266 190 266 C190 272.27 190 278.54 190 285 C183.73 285 177.46 285 171 285 C171 297.54 171 310.08 171 323 C164.73 323 158.46 323 152 323 C152 329.27 152 335.54 152 342 C145.73 342 139.46 342 133 342 C133 354.54 133 367.08 133 380 C126.73 380 120.46 380 114 380 C114 398.81 114 417.62 114 437 C107.73 437 101.46 437 95 437 C95 455.81 95 474.62 95 494 C88.73 494 82.46 494 76 494 C76 562.97 76 631.94 76 703 C82.27 703 88.54 703 95 703 C95 721.81 95 740.62 95 760 C101.27 760 107.54 760 114 760 C114 778.81 114 797.62 114 817 C120.27 817 126.54 817 133 817 C133 829.54 133 842.08 133 855 C139.27 855 145.54 855 152 855 C152 861.27 152 867.54 152 874 C158.27 874 164.54 874 171 874 C171 886.54 171 899.08 171 912 C177.27 912 183.54 912 190 912 C190 918.27 190 924.54 190 931 C196.27 931 202.54 931 209 931 C209 937.27 209 943.54 209 950 C215.27 950 221.54 950 228 950 C228 956.27 228 962.54 228 969 C234.27 969 240.54 969 247 969 C247 975.27 247 981.54 247 988 C253.27 988 259.54 988 266 988 C266 994.27 266 1000.54 266 1007 C272.27 1007 278.54 1007 285 1007 C285 1013.27 285 1019.54 285 1026 C297.54 1026 310.08 1026 323 1026 C323 1032.27 323 1038.54 323 1045 C329.27 1045 335.54 1045 342 1045 C342 1051.27 342 1057.54 342 1064 C354.54 1064 367.08 1064 380 1064 C380 1070.27 380 1076.54 380 1083 C398.81 1083 417.62 1083 437 1083 C437 1089.27 437 1095.54 437 1102 C455.81 1102 474.62 1102 494 1102 C494 1108.27 494 1114.54 494 1121 C562.97 1121 631.94 1121 703 1121 C703 1114.73 703 1108.46 703 1102 C721.81 1102 740.62 1102 760 1102 C760 1095.73 760 1089.46 760 1083 C778.81 1083 797.62 1083 817 1083 C817 1076.73 817 1070.46 817 1064 C829.54 1064 842.08 1064 855 1064 C855 1057.73 855 1051.46 855 1045 C861.27 1045 867.54 1045 874 1045 C874 1038.73 874 1032.46 874 1026 C886.54 1026 899.08 1026 912 1026 C912 1019.73 912 1013.46 912 1007 C918.27 1007 924.54 1007 931 1007 C931 1000.73 931 994.46 931 988 C937.27 988 943.54 988 950 988 C950 981.73 950 975.46 950 969 C956.27 969 962.54 969 969 969 C969 962.73 969 956.46 969 950 C975.27 950 981.54 950 988 950 C988 943.73 988 937.46 988 931 C994.27 931 1000.54 931 1007 931 C1007 924.73 1007 918.46 1007 912 C1013.27 912 1019.54 912 1026 912 C1026 899.46 1026 886.92 1026 874 C1032.27 874 1038.54 874 1045 874 C1045 867.73 1045 861.46 1045 855 C1051.27 855 1057.54 855 1064 855 C1064 842.46 1064 829.92 1064 817 C1070.27 817 1076.54 817 1083 817 C1083 798.19 1083 779.38 1083 760 C1089.27 760 1095.54 760 1102 760 C1102 741.19 1102 722.38 1102 703 C1108.27 703 1114.54 703 1121 703 C1121 634.03 1121 565.06 1121 494 C1114.73 494 1108.46 494 1102 494 C1102 475.19 1102 456.38 1102 437 C1095.73 437 1089.46 437 1083 437 C1083 418.19 1083 399.38 1083 380 C1076.73 380 1070.46 380 1064 380 C1064 367.46 1064 354.92 1064 342 C1057.73 342 1051.46 342 1045 342 C1045 335.73 1045 329.46 1045 323 C1038.73 323 1032.46 323 1026 323 C1026 310.46 1026 297.92 1026 285 C1019.73 285 1013.46 285 1007 285 C1007 278.73 1007 272.46 1007 266 C1000.73 266 994.46 266 988 266 C988 259.73 988 253.46 988 247 C981.73 247 975.46 247 969 247 C969 240.73 969 234.46 969 228 C962.73 228 956.46 228 950 228 C950 221.73 950 215.46 950 209 C943.73 209 937.46 209 931 209 C931 202.73 931 196.46 931 190 C924.73 190 918.46 190 912 190 C912 183.73 912 177.46 912 171 C899.46 171 886.92 171 874 171 C874 164.73 874 158.46 874 152 C867.73 152 861.46 152 855 152 C855 145.73 855 139.46 855 133 C842.46 133 829.92 133 817 133 C817 126.73 817 120.46 817 114 C798.19 114 779.38 114 760 114 C760 107.73 760 101.46 760 95 C741.19 95 722.38 95 703 95 C703 88.73 703 82.46 703 76 C634.03 76 565.06 76 494 76 Z " fill="#E3E3E3" transform="translate(0,0)"/>
<path d="M0 0 C25.08 0 50.16 0 76 0 C76 6.27 76 12.54 76 19 C82.27 19 88.54 19 95 19 C95 50.35 95 81.7 95 114 C88.73 114 82.46 114 76 114 C76 139.08 76 164.16 76 190 C69.73 190 63.46 190 57 190 C57 221.35 57 252.7 57 285 C50.73 285 44.46 285 38 285 C38 341.43 38 397.86 38 456 C31.73 456 25.46 456 19 456 C19 487.35 19 518.7 19 551 C12.73 551 6.46 551 0 551 C0 557.27 0 563.54 0 570 C-18.81 570 -37.62 570 -57 570 C-57 563.73 -57 557.46 -57 551 C-69.54 551 -82.08 551 -95 551 C-95 544.73 -95 538.46 -95 532 C-101.27 532 -107.54 532 -114 532 C-114 525.73 -114 519.46 -114 513 C-120.27 513 -126.54 513 -133 513 C-133 506.73 -133 500.46 -133 494 C-139.27 494 -145.54 494 -152 494 C-152 487.73 -152 481.46 -152 475 C-164.54 475 -177.08 475 -190 475 C-190 481.27 -190 487.54 -190 494 C-196.27 494 -202.54 494 -209 494 C-209 500.27 -209 506.54 -209 513 C-221.54 513 -234.08 513 -247 513 C-247 519.27 -247 525.54 -247 532 C-253.27 532 -259.54 532 -266 532 C-266 538.27 -266 544.54 -266 551 C-278.54 551 -291.08 551 -304 551 C-304 538.46 -304 525.92 -304 513 C-310.27 513 -316.54 513 -323 513 C-323 500.46 -323 487.92 -323 475 C-329.27 475 -335.54 475 -342 475 C-342 449.92 -342 424.84 -342 399 C-348.27 399 -354.54 399 -361 399 C-361 386.46 -361 373.92 -361 361 C-367.27 361 -373.54 361 -380 361 C-380 354.73 -380 348.46 -380 342 C-405.08 342 -430.16 342 -456 342 C-456 335.73 -456 329.46 -456 323 C-481.08 323 -506.16 323 -532 323 C-532 316.73 -532 310.46 -532 304 C-544.54 304 -557.08 304 -570 304 C-570 285.19 -570 266.38 -570 247 C-563.73 247 -557.46 247 -551 247 C-551 240.73 -551 234.46 -551 228 C-544.73 228 -538.46 228 -532 228 C-532 221.73 -532 215.46 -532 209 C-519.46 209 -506.92 209 -494 209 C-494 202.73 -494 196.46 -494 190 C-475.19 190 -456.38 190 -437 190 C-437 183.73 -437 177.46 -437 171 C-424.46 171 -411.92 171 -399 171 C-399 164.73 -399 158.46 -399 152 C-380.19 152 -361.38 152 -342 152 C-342 145.73 -342 139.46 -342 133 C-323.19 133 -304.38 133 -285 133 C-285 126.73 -285 120.46 -285 114 C-272.46 114 -259.92 114 -247 114 C-247 107.73 -247 101.46 -247 95 C-228.19 95 -209.38 95 -190 95 C-190 88.73 -190 82.46 -190 76 C-171.19 76 -152.38 76 -133 76 C-133 69.73 -133 63.46 -133 57 C-120.46 57 -107.92 57 -95 57 C-95 50.73 -95 44.46 -95 38 C-76.19 38 -57.38 38 -38 38 C-38 31.73 -38 25.46 -38 19 C-25.46 19 -12.92 19 0 19 C0 12.73 0 6.46 0 0 Z " fill="#FFFFFF" transform="translate(798,304)"/>
<path d="M0 0 C6.27 0 12.54 0 19 0 C19 131.67 19 263.34 19 399 C13.06 399.33 7.12 399.66 1 400 C0.67 418.48 0.34 436.96 0 456 C-18.81 456 -37.62 456 -57 456 C-57 449.73 -57 443.46 -57 437 C-169.86 437 -282.72 437 -399 437 C-399 430.73 -399 424.46 -399 418 C-405.27 418 -411.54 418 -418 418 C-418 411.73 -418 405.46 -418 399 C-424.27 399 -430.54 399 -437 399 C-437 367.65 -437 336.3 -437 304 C-442.94 304.33 -448.88 304.66 -455 305 C-455.33 310.94 -455.66 316.88 -456 323 C-462.27 323 -468.54 323 -475 323 C-475 304.19 -475 285.38 -475 266 C-481.27 266 -487.54 266 -494 266 C-494 259.73 -494 253.46 -494 247 C-506.54 247 -519.08 247 -532 247 C-532 240.73 -532 234.46 -532 228 C-544.54 228 -557.08 228 -570 228 C-570 221.73 -570 215.46 -570 209 C-582.54 209 -595.08 209 -608 209 C-608 196.46 -608 183.92 -608 171 C-614.27 171 -620.54 171 -627 171 C-627 152.19 -627 133.38 -627 114 C-614.46 114 -601.92 114 -589 114 C-589 120.27 -589 126.54 -589 133 C-563.92 133 -538.84 133 -513 133 C-513 139.27 -513 145.54 -513 152 C-487.92 152 -462.84 152 -437 152 C-437 158.27 -437 164.54 -437 171 C-430.73 171 -424.46 171 -418 171 C-418 183.54 -418 196.08 -418 209 C-411.73 209 -405.46 209 -399 209 C-399 234.08 -399 259.16 -399 285 C-392.73 285 -386.46 285 -380 285 C-380 297.54 -380 310.08 -380 323 C-373.73 323 -367.46 323 -361 323 C-361 335.54 -361 348.08 -361 361 C-348.46 361 -335.92 361 -323 361 C-323 354.73 -323 348.46 -323 342 C-316.73 342 -310.46 342 -304 342 C-304 335.73 -304 329.46 -304 323 C-291.46 323 -278.92 323 -266 323 C-266 316.73 -266 310.46 -266 304 C-259.73 304 -253.46 304 -247 304 C-247 297.73 -247 291.46 -247 285 C-234.46 285 -221.92 285 -209 285 C-209 291.27 -209 297.54 -209 304 C-202.73 304 -196.46 304 -190 304 C-190 310.27 -190 316.54 -190 323 C-183.73 323 -177.46 323 -171 323 C-171 329.27 -171 335.54 -171 342 C-164.73 342 -158.46 342 -152 342 C-152 348.27 -152 354.54 -152 361 C-139.46 361 -126.92 361 -114 361 C-114 367.27 -114 373.54 -114 380 C-95.19 380 -76.38 380 -57 380 C-57 373.73 -57 367.46 -57 361 C-50.73 361 -44.46 361 -38 361 C-38 329.65 -38 298.3 -38 266 C-31.73 266 -25.46 266 -19 266 C-19 209.57 -19 153.14 -19 95 C-12.73 95 -6.46 95 0 95 C0 63.65 0 32.3 0 0 Z " fill="#186FB4" transform="translate(855,494)"/>
<path d="M0 0 C12.54 0 25.08 0 38 0 C38 6.27 38 12.54 38 19 C31.73 19 25.46 19 19 19 C19 31.54 19 44.08 19 57 C12.73 57 6.46 57 0 57 C0 69.54 0 82.08 0 95 C-6.27 95 -12.54 95 -19 95 C-19 101.27 -19 107.54 -19 114 C-25.27 114 -31.54 114 -38 114 C-38 120.27 -38 126.54 -38 133 C-44.27 133 -50.54 133 -57 133 C-57 145.54 -57 158.08 -57 171 C-63.27 171 -69.54 171 -76 171 C-76 177.27 -76 183.54 -76 190 C-82.27 190 -88.54 190 -95 190 C-95 196.27 -95 202.54 -95 209 C-101.27 209 -107.54 209 -114 209 C-114 221.54 -114 234.08 -114 247 C-120.27 247 -126.54 247 -133 247 C-133 259.54 -133 272.08 -133 285 C-126.73 285 -120.46 285 -114 285 C-114 291.27 -114 297.54 -114 304 C-107.73 304 -101.46 304 -95 304 C-95 316.54 -95 329.08 -95 342 C-101.27 342 -107.54 342 -114 342 C-114 348.27 -114 354.54 -114 361 C-126.54 361 -139.08 361 -152 361 C-152 367.27 -152 373.54 -152 380 C-158.27 380 -164.54 380 -171 380 C-171 386.27 -171 392.54 -171 399 C-183.54 399 -196.08 399 -209 399 C-209 386.46 -209 373.92 -209 361 C-215.27 361 -221.54 361 -228 361 C-228 348.46 -228 335.92 -228 323 C-234.27 323 -240.54 323 -247 323 C-247 297.92 -247 272.84 -247 247 C-253.27 247 -259.54 247 -266 247 C-266 234.46 -266 221.92 -266 209 C-259.73 209 -253.46 209 -247 209 C-247 202.73 -247 196.46 -247 190 C-234.46 190 -221.92 190 -209 190 C-209 183.73 -209 177.46 -209 171 C-202.73 171 -196.46 171 -190 171 C-190 164.73 -190 158.46 -190 152 C-183.73 152 -177.46 152 -171 152 C-171 145.73 -171 139.46 -171 133 C-158.46 133 -145.92 133 -133 133 C-133 126.73 -133 120.46 -133 114 C-126.73 114 -120.46 114 -114 114 C-114 107.73 -114 101.46 -114 95 C-101.46 95 -88.92 95 -76 95 C-76 88.73 -76 82.46 -76 76 C-69.73 76 -63.46 76 -57 76 C-57 69.73 -57 63.46 -57 57 C-50.73 57 -44.46 57 -38 57 C-38 50.73 -38 44.46 -38 38 C-31.73 38 -25.46 38 -19 38 C-19 31.73 -19 25.46 -19 19 C-12.73 19 -6.46 19 0 19 C0 12.73 0 6.46 0 0 Z " fill="#CFD8DC" transform="translate(703,456)"/>
<path d="M0 0 C12.54 0 25.08 0 38 0 C38 18.81 38 37.62 38 57 C44.27 57 50.54 57 57 57 C57 63.27 57 69.54 57 76 C75.81 76 94.62 76 114 76 C114 82.27 114 88.54 114 95 C132.81 95 151.62 95 171 95 C171 101.27 171 107.54 171 114 C177.27 114 183.54 114 190 114 C190 120.27 190 126.54 190 133 C196.27 133 202.54 133 209 133 C209 158.08 209 183.16 209 209 C215.27 209 221.54 209 228 209 C228 227.81 228 246.62 228 266 C234.27 266 240.54 266 247 266 C247 272.27 247 278.54 247 285 C253.27 285 259.54 285 266 285 C266 291.27 266 297.54 266 304 C366.32 304 466.64 304 570 304 C570 297.73 570 291.46 570 285 C576.27 285 582.54 285 589 285 C589 278.73 589 272.46 589 266 C601.54 266 614.08 266 627 266 C628.06261497 282.46659644 627.93130962 298.75873356 627.5625 315.25 C627.376875 324.0775 627.19125 332.905 627 342 C608.19 342 589.38 342 570 342 C570 335.73 570 329.46 570 323 C457.14 323 344.28 323 228 323 C228 316.73 228 310.46 228 304 C221.73 304 215.46 304 209 304 C209 297.73 209 291.46 209 285 C202.73 285 196.46 285 190 285 C190 253.65 190 222.3 190 190 C184.06 190.33 178.12 190.66 172 191 C171.67 196.94 171.34 202.88 171 209 C164.73 209 158.46 209 152 209 C152 190.19 152 171.38 152 152 C145.73 152 139.46 152 133 152 C133 145.73 133 139.46 133 133 C120.46 133 107.92 133 95 133 C95 126.73 95 120.46 95 114 C82.46 114 69.92 114 57 114 C57 107.73 57 101.46 57 95 C44.46 95 31.92 95 19 95 C19 82.46 19 69.92 19 57 C12.73 57 6.46 57 0 57 C0 38.19 0 19.38 0 0 Z " fill="#1C7FCE" transform="translate(228,608)"/>
<path d="M0 0 C12.54 0 25.08 0 38 0 C38 6.27 38 12.54 38 19 C44.27 19 50.54 19 57 19 C57 25.27 57 31.54 57 38 C63.27 38 69.54 38 76 38 C76 44.27 76 50.54 76 57 C82.27 57 88.54 57 95 57 C95 63.27 95 69.54 95 76 C107.54 76 120.08 76 133 76 C133 82.27 133 88.54 133 95 C145.54 95 158.08 95 171 95 C171 101.27 171 107.54 171 114 C133.38 114 95.76 114 57 114 C57 107.73 57 101.46 57 95 C0.57 95 -55.86 95 -114 95 C-114 88.73 -114 82.46 -114 76 C-101.46 76 -88.92 76 -76 76 C-76 69.73 -76 63.46 -76 57 C-69.73 57 -63.46 57 -57 57 C-57 50.73 -57 44.46 -57 38 C-44.46 38 -31.92 38 -19 38 C-19 31.73 -19 25.46 -19 19 C-12.73 19 -6.46 19 0 19 C0 12.73 0 6.46 0 0 Z " fill="#1665A4" transform="translate(608,779)"/>
<path d="M0 0 C25.08 0 50.16 0 76 0 C76 6.27 76 12.54 76 19 C101.08 19 126.16 19 152 19 C152 25.27 152 31.54 152 38 C158.27 38 164.54 38 171 38 C171 50.54 171 63.08 171 76 C177.27 76 183.54 76 190 76 C190 101.08 190 126.16 190 152 C196.27 152 202.54 152 209 152 C209 164.54 209 177.08 209 190 C215.27 190 221.54 190 228 190 C228 202.54 228 215.08 228 228 C215.46 228 202.92 228 190 228 C190 215.46 190 202.92 190 190 C183.73 190 177.46 190 171 190 C171 164.92 171 139.84 171 114 C164.73 114 158.46 114 152 114 C152 107.73 152 101.46 152 95 C145.73 95 139.46 95 133 95 C133 88.73 133 82.46 133 76 C114.19 76 95.38 76 76 76 C76 69.73 76 63.46 76 57 C57.19 57 38.38 57 19 57 C19 50.73 19 44.46 19 38 C12.73 38 6.46 38 0 38 C0 25.46 0 12.92 0 0 Z " fill="#135A92" transform="translate(266,627)"/>
<path d="M0 0 C12.54 0 25.08 0 38 0 C38 18.81 38 37.62 38 57 C44.27 57 50.54 57 57 57 C57 63.27 57 69.54 57 76 C75.81 76 94.62 76 114 76 C114 82.27 114 88.54 114 95 C132.81 95 151.62 95 171 95 C171 101.27 171 107.54 171 114 C177.27 114 183.54 114 190 114 C190 120.27 190 126.54 190 133 C196.27 133 202.54 133 209 133 C209 145.54 209 158.08 209 171 C202.73 171 196.46 171 190 171 C190 164.73 190 158.46 190 152 C183.73 152 177.46 152 171 152 C171 145.73 171 139.46 171 133 C164.73 133 158.46 133 152 133 C152 126.73 152 120.46 152 114 C120.65 114 89.3 114 57 114 C57 107.73 57 101.46 57 95 C44.46 95 31.92 95 19 95 C19 82.46 19 69.92 19 57 C12.73 57 6.46 57 0 57 C0 38.19 0 19.38 0 0 Z " fill="#1974BC" transform="translate(228,608)"/>
<path d="M0 0 C6.27 0 12.54 0 19 0 C19 131.67 19 263.34 19 399 C12.73 399 6.46 399 0 399 C0 267.33 0 135.66 0 0 Z " fill="#1A79C4" transform="translate(855,494)"/>
<path d="M0 0 C6.27 0 12.54 0 19 0 C19 12.54 19 25.08 19 38 C25.27 38 31.54 38 38 38 C38 44.27 38 50.54 38 57 C44.27 57 50.54 57 57 57 C57 69.54 57 82.08 57 95 C50.73 95 44.46 95 38 95 C38 101.27 38 107.54 38 114 C25.46 114 12.92 114 0 114 C0 120.27 0 126.54 0 133 C-6.27 133 -12.54 133 -19 133 C-19 139.27 -19 145.54 -19 152 C-25.27 152 -31.54 152 -38 152 C-38 139.46 -38 126.92 -38 114 C-31.73 114 -25.46 114 -19 114 C-19 88.92 -19 63.84 -19 38 C-12.73 38 -6.46 38 0 38 C0 25.46 0 12.92 0 0 Z " fill="#B0BEC5" transform="translate(551,703)"/>
<path d="M0 0 C6.27 0 12.54 0 19 0 C19 18.81 19 37.62 19 57 C13.06 57.33 7.12 57.66 1 58 C0.67 63.94 0.34 69.88 0 76 C-5.94 76.33 -11.88 76.66 -18 77 C-18.33 82.94 -18.66 88.88 -19 95 C-31.21 95.33 -43.42 95.66 -56 96 C-56.33 101.94 -56.66 107.88 -57 114 C-75.81 114 -94.62 114 -114 114 C-114 107.73 -114 101.46 -114 95 C-101.46 95 -88.92 95 -76 95 C-76 88.73 -76 82.46 -76 76 C-69.73 76 -63.46 76 -57 76 C-57 69.73 -57 63.46 -57 57 C-50.73 57 -44.46 57 -38 57 C-38 50.73 -38 44.46 -38 38 C-31.73 38 -25.46 38 -19 38 C-19 31.73 -19 25.46 -19 19 C-12.73 19 -6.46 19 0 19 C0 12.73 0 6.46 0 0 Z " fill="#C0C0C0" transform="translate(988,931)"/>
<path d="M0 0 C18.81 0 37.62 0 57 0 C57 6.27 57 12.54 57 19 C63.27 19 69.54 19 76 19 C76 25.27 76 31.54 76 38 C82.27 38 88.54 38 95 38 C95 44.27 95 50.54 95 57 C101.27 57 107.54 57 114 57 C114 69.54 114 82.08 114 95 C120.27 95 126.54 95 133 95 C133 107.54 133 120.08 133 133 C126.73 133 120.46 133 114 133 C114 126.73 114 120.46 114 114 C107.73 114 101.46 114 95 114 C95 101.46 95 88.92 95 76 C89.06 76.33 83.12 76.66 77 77 C76.67 82.94 76.34 88.88 76 95 C69.73 95 63.46 95 57 95 C57 76.19 57 57.38 57 38 C50.73 38 44.46 38 38 38 C38 31.73 38 25.46 38 19 C25.46 19 12.92 19 0 19 C0 12.73 0 6.46 0 0 Z " fill="#1B7BC7" transform="translate(323,722)"/>
<path d="M0 0 C12.54 0 25.08 0 38 0 C38 6.27 38 12.54 38 19 C44.27 19 50.54 19 57 19 C57 25.27 57 31.54 57 38 C63.27 38 69.54 38 76 38 C76 44.27 76 50.54 76 57 C32.11 57 -11.78 57 -57 57 C-57 50.73 -57 44.46 -57 38 C-44.46 38 -31.92 38 -19 38 C-19 31.73 -19 25.46 -19 19 C-12.73 19 -6.46 19 0 19 C0 12.73 0 6.46 0 0 Z " fill="#115284" transform="translate(608,779)"/>
<path d="M0 0 C6.27 0 12.54 0 19 0 C19 37.62 19 75.24 19 114 C25.27 114 31.54 114 38 114 C38 126.54 38 139.08 38 152 C50.54 152 63.08 152 76 152 C76 158.27 76 164.54 76 171 C57.19 171 38.38 171 19 171 C19 164.73 19 158.46 19 152 C12.73 152 6.46 152 0 152 C0 101.84 0 51.68 0 0 Z " fill="#1C83D4" transform="translate(209,551)"/>
<path d="M0 0 C56.43 0 112.86 0 171 0 C171 6.27 171 12.54 171 19 C183.54 19 196.08 19 209 19 C209 25.27 209 31.54 209 38 C190.19 38 171.38 38 152 38 C152 31.73 152 25.46 152 19 C101.84 19 51.68 19 0 19 C0 12.73 0 6.46 0 0 Z " fill="#135A92" transform="translate(532,836)"/>
<path d="M0 0 C12.54 0 25.08 0 38 0 C38 6.27 38 12.54 38 19 C63.08 19 88.16 19 114 19 C114 25.27 114 31.54 114 38 C120.27 38 126.54 38 133 38 C133 50.54 133 63.08 133 76 C126.73 76 120.46 76 114 76 C114 69.73 114 63.46 114 57 C101.46 57 88.92 57 76 57 C76 50.73 76 44.46 76 38 C50.92 38 25.84 38 0 38 C0 25.46 0 12.92 0 0 Z " fill="#114E7F" transform="translate(304,627)"/>
<path d="M0 0 C63.03 0 126.06 0 191 0 C190.67 6.27 190.34 12.54 190 19 C127.3 19 64.6 19 0 19 C0 12.73 0 6.46 0 0 Z " fill="#1A7AC5" transform="translate(494,893)"/>
<path d="M0 0 C6.27 0 12.54 0 19 0 C19 6.27 19 12.54 19 19 C25.27 19 31.54 19 38 19 C38 25.27 38 31.54 38 38 C44.27 38 50.54 38 57 38 C57 44.27 57 50.54 57 57 C63.27 57 69.54 57 76 57 C76 63.27 76 69.54 76 76 C82.27 76 88.54 76 95 76 C95 82.27 95 88.54 95 95 C76.19 95 57.38 95 38 95 C38 82.46 38 69.92 38 57 C31.73 57 25.46 57 19 57 C19 50.73 19 44.46 19 38 C12.73 38 6.46 38 0 38 C0 25.46 0 12.92 0 0 Z " fill="#C0C0C0" transform="translate(190,931)"/>
<path d="M0 0 C12.54 0 25.08 0 38 0 C38 12.54 38 25.08 38 38 C44.27 38 50.54 38 57 38 C57 50.54 57 63.08 57 76 C44.46 76 31.92 76 19 76 C19 63.46 19 50.92 19 38 C12.73 38 6.46 38 0 38 C0 25.46 0 12.92 0 0 Z " fill="#1768A9" transform="translate(437,779)"/>
<path d="M0 0 C6.27 0 12.54 0 19 0 C20.06261497 16.46659644 19.93130962 32.75873356 19.5625 49.25 C19.376875 58.0775 19.19125 66.905 19 76 C0.19 76 -18.62 76 -38 76 C-38 69.73 -38 63.46 -38 57 C-31.73 57 -25.46 57 -19 57 C-19 50.73 -19 44.46 -19 38 C-12.73 38 -6.46 38 0 38 C0 25.46 0 12.92 0 0 Z " fill="#1D85D7" transform="translate(836,874)"/>
<path d="M0 0 C12.54 0 25.08 0 38 0 C38 6.27 38 12.54 38 19 C44.27 19 50.54 19 57 19 C57 25.27 57 31.54 57 38 C63.27 38 69.54 38 76 38 C76 50.54 76 63.08 76 76 C69.73 76 63.46 76 57 76 C57 69.73 57 63.46 57 57 C50.73 57 44.46 57 38 57 C38 50.73 38 44.46 38 38 C31.73 38 25.46 38 19 38 C19 31.73 19 25.46 19 19 C12.73 19 6.46 19 0 19 C0 12.73 0 6.46 0 0 Z " fill="#176BAE" transform="translate(361,703)"/>
<path d="M0 0 C6.27 0 12.54 0 19 0 C19 6.27 19 12.54 19 19 C25.27 19 31.54 19 38 19 C38 31.54 38 44.08 38 57 C32.06 57.33 26.12 57.66 20 58 C19.67 63.94 19.34 69.88 19 76 C9.595 76.495 9.595 76.495 0 77 C0 51.59 0 26.18 0 0 Z " fill="#1D87DB" transform="translate(893,323)"/>
<path d="M0 0 C12.54 0 25.08 0 38 0 C38 6.27 38 12.54 38 19 C44.27 19 50.54 19 57 19 C57 25.27 57 31.54 57 38 C31.92 38 6.84 38 -19 38 C-19 31.73 -19 25.46 -19 19 C-12.73 19 -6.46 19 0 19 C0 12.73 0 6.46 0 0 Z " fill="#104876" transform="translate(608,779)"/>
<path d="M0 0 C12.54 0 25.08 0 38 0 C38 6.27 38 12.54 38 19 C50.54 19 63.08 19 76 19 C76 25.27 76 31.54 76 38 C50.92 38 25.84 38 0 38 C0 25.46 0 12.92 0 0 Z " fill="#145991" transform="translate(304,627)"/>
<path d="M0 0 C12.54 0 25.08 0 38 0 C38 12.54 38 25.08 38 38 C44.27 38 50.54 38 57 38 C57 44.27 57 50.54 57 57 C44.46 57 31.92 57 19 57 C19 50.73 19 44.46 19 38 C12.73 38 6.46 38 0 38 C0 25.46 0 12.92 0 0 Z " fill="#1665A4" transform="translate(266,627)"/>
<path d="M0 0 C6.27 0 12.54 0 19 0 C19 25.08 19 50.16 19 76 C12.73 76 6.46 76 0 76 C0 50.92 0 25.84 0 0 Z " fill="#1768A9" transform="translate(817,760)"/>
<path d="M0 0 C6.27 0 12.54 0 19 0 C19 18.81 19 37.62 19 57 C9.595 57.495 9.595 57.495 0 58 C0 38.86 0 19.72 0 0 Z " fill="#1664A3" transform="translate(855,494)"/>
<path d="M0 0 C18.81 0 37.62 0 57 0 C57 6.27 57 12.54 57 19 C38.19 19 19.38 19 0 19 C0 12.73 0 6.46 0 0 Z " fill="#1972B9" transform="translate(285,684)"/>
<path d="M0 0 C6.27 0 12.54 0 19 0 C19.81646531 12.88200828 19.93402319 25.13123607 19 38 C12.73 38 6.46 38 0 38 C0 25.46 0 12.92 0 0 Z " fill="#1D87DB" transform="translate(380,779)"/>
<path d="M0 0 C12.54 0 25.08 0 38 0 C38 6.27 38 12.54 38 19 C25.46 19 12.92 19 0 19 C0 12.73 0 6.46 0 0 Z " fill="#BDBDBD" transform="translate(285,1026)"/>
<path d="M0 0 C6.27 0 12.54 0 19 0 C19 12.54 19 25.08 19 38 C12.73 38 6.46 38 0 38 C0 25.46 0 12.92 0 0 Z " fill="#186EB2" transform="translate(437,779)"/>
<path d="M0 0 C6.27 0 12.54 0 19 0 C19 12.54 19 25.08 19 38 C12.73 38 6.46 38 0 38 C0 25.46 0 12.92 0 0 Z " fill="#1766A6" transform="translate(437,741)"/>
<path d="M0 0 C12.54 0 25.08 0 38 0 C38 6.27 38 12.54 38 19 C25.46 19 12.92 19 0 19 C0 12.73 0 6.46 0 0 Z " fill="#1E88DC" transform="translate(342,760)"/>
<path d="M0 0 C6.27 0 12.54 0 19 0 C19 12.54 19 25.08 19 38 C12.73 38 6.46 38 0 38 C0 25.46 0 12.92 0 0 Z " fill="#145A92" transform="translate(437,703)"/>
<path d="M0 0 C12.54 0 25.08 0 38 0 C38 6.27 38 12.54 38 19 C25.46 19 12.92 19 0 19 C0 12.73 0 6.46 0 0 Z " fill="#1B7BC8" transform="translate(285,703)"/>
<path d="M0 0 C12.54 0 25.08 0 38 0 C38 6.27 38 12.54 38 19 C25.46 19 12.92 19 0 19 C0 12.73 0 6.46 0 0 Z " fill="#1665A3" transform="translate(342,684)"/>
<path d="M0 0 C12.54 0 25.08 0 38 0 C38 6.27 38 12.54 38 19 C25.46 19 12.92 19 0 19 C0 12.73 0 6.46 0 0 Z " fill="#1B7BC8" transform="translate(247,684)"/>
<path d="M0 0 C12.54 0 25.08 0 38 0 C38 6.27 38 12.54 38 19 C25.46 19 12.92 19 0 19 C0 12.73 0 6.46 0 0 Z " fill="#125387" transform="translate(342,646)"/>
<path d="M0 0 C6.27 0 12.54 0 19 0 C19 12.54 19 25.08 19 38 C12.73 38 6.46 38 0 38 C0 25.46 0 12.92 0 0 Z " fill="#1769AA" transform="translate(266,627)"/>
<path d="M0 0 C6.27 0 12.54 0 19 0 C19 12.54 19 25.08 19 38 C12.73 38 6.46 38 0 38 C0 25.46 0 12.92 0 0 Z " fill="#1D87DB" transform="translate(209,551)"/>
<path d="M0 0 C6.27 0 12.54 0 19 0 C19 6.27 19 12.54 19 19 C9.595 19.495 9.595 19.495 0 20 C0 13.4 0 6.8 0 0 Z " fill="#1B7DCB" transform="translate(893,380)"/>
<path d="M0 0 C6.27 0 12.54 0 19 0 C19 6.27 19 12.54 19 19 C12.73 19 6.46 19 0 19 C0 12.73 0 6.46 0 0 Z " fill="#1A77C1" transform="translate(456,855)"/>
<path d="M0 0 C6.27 0 12.54 0 19 0 C19 6.27 19 12.54 19 19 C12.73 19 6.46 19 0 19 C0 12.73 0 6.46 0 0 Z " fill="#16629F" transform="translate(475,817)"/>
<path d="M0 0 C6.27 0 12.54 0 19 0 C19 6.27 19 12.54 19 19 C12.73 19 6.46 19 0 19 C0 12.73 0 6.46 0 0 Z " fill="#186CAE" transform="translate(456,817)"/>
<path d="M0 0 C6.27 0 12.54 0 19 0 C19 6.27 19 12.54 19 19 C12.73 19 6.46 19 0 19 C0 12.73 0 6.46 0 0 Z " fill="#1C7ECD" transform="translate(418,817)"/>
<path d="M0 0 C6.27 0 12.54 0 19 0 C19 6.27 19 12.54 19 19 C12.73 19 6.46 19 0 19 C0 12.73 0 6.46 0 0 Z " fill="#15609C" transform="translate(437,741)"/>
<path d="M0 0 C6.27 0 12.54 0 19 0 C19 6.27 19 12.54 19 19 C12.73 19 6.46 19 0 19 C0 12.73 0 6.46 0 0 Z " fill="#1972B9" transform="translate(399,741)"/>
<path d="M0 0 C6.27 0 12.54 0 19 0 C19 6.27 19 12.54 19 19 C12.73 19 6.46 19 0 19 C0 12.73 0 6.46 0 0 Z " fill="#16629F" transform="translate(418,722)"/>
<path d="M0 0 C6.27 0 12.54 0 19 0 C19 6.27 19 12.54 19 19 C12.73 19 6.46 19 0 19 C0 12.73 0 6.46 0 0 Z " fill="#1971B7" transform="translate(380,722)"/>
<path d="M0 0 C6.27 0 12.54 0 19 0 C19 6.27 19 12.54 19 19 C12.73 19 6.46 19 0 19 C0 12.73 0 6.46 0 0 Z " fill="#1A77C1" transform="translate(361,722)"/>
<path d="M0 0 C6.27 0 12.54 0 19 0 C19 6.27 19 12.54 19 19 C12.73 19 6.46 19 0 19 C0 12.73 0 6.46 0 0 Z " fill="#125487" transform="translate(437,703)"/>
<path d="M0 0 C6.27 0 12.54 0 19 0 C19 6.27 19 12.54 19 19 C12.73 19 6.46 19 0 19 C0 12.73 0 6.46 0 0 Z " fill="#15619D" transform="translate(399,703)"/>
<path d="M0 0 C6.27 0 12.54 0 19 0 C19 6.27 19 12.54 19 19 C12.73 19 6.46 19 0 19 C0 12.73 0 6.46 0 0 Z " fill="#155E98" transform="translate(380,684)"/>
<path d="M0 0 C6.27 0 12.54 0 19 0 C19 6.27 19 12.54 19 19 C12.73 19 6.46 19 0 19 C0 12.73 0 6.46 0 0 Z " fill="#186CAE" transform="translate(323,684)"/>
<path d="M0 0 C6.27 0 12.54 0 19 0 C19 6.27 19 12.54 19 19 C12.73 19 6.46 19 0 19 C0 12.73 0 6.46 0 0 Z " fill="#135589" transform="translate(380,665)"/>
<path d="M0 0 C6.27 0 12.54 0 19 0 C19 6.27 19 12.54 19 19 C12.73 19 6.46 19 0 19 C0 12.73 0 6.46 0 0 Z " fill="#15629E" transform="translate(323,665)"/>
<path d="M0 0 C6.27 0 12.54 0 19 0 C19 6.27 19 12.54 19 19 C12.73 19 6.46 19 0 19 C0 12.73 0 6.46 0 0 Z " fill="#1A78C2" transform="translate(247,665)"/>
<path d="M0 0 C6.27 0 12.54 0 19 0 C19 6.27 19 12.54 19 19 C12.73 19 6.46 19 0 19 C0 12.73 0 6.46 0 0 Z " fill="#1E88DD" transform="translate(228,532)"/>
<path d="M0 0 C6.27 0 12.54 0 19 0 C19 6.27 19 12.54 19 19 C12.73 19 6.46 19 0 19 C0 12.73 0 6.46 0 0 Z " fill="#1E8ADF" transform="translate(247,513)"/>
<path d="M0 0 C6.27 0 12.54 0 19 0 C19 6.27 19 12.54 19 19 C12.73 19 6.46 19 0 19 C0 12.73 0 6.46 0 0 Z " fill="#1F8BE2" transform="translate(893,323)"/>
</svg>
